<!DOCTYPE svg PUBLIC "-//W3C//DTD SVG 20010904//EN" "http://www.w3.org/TR/2001/REC-SVG-20010904/DTD/svg10.dtd">
<svg version="1.0" xmlns="http://www.w3.org/2000/svg" width="1600px" height="1200px" viewBox="0 0 16000 12000" preserveAspectRatio="xMidYMid meet">
<g id="layer101" fill="#3b6d95" stroke="none">
 <path d="M7894 8469 c-4 -7 -9 -42 -11 -78 -1 -37 -5 -84 -8 -106 -3 -22 -9 -123 -14 -225 -11 -222 -17 -290 -36 -440 -33 -262 -36 -300 -30 -310 4 -6 2 -16 -3 -23 -6 -7 -13 -64 -17 -127 -4 -63 -12 -123 -17 -133 -5 -10 -12 -50 -15 -90 -3 -40 -10 -78 -16 -85 -11 -14 -1 -220 12 -237 15 -18 21 -113 8 -118 -9 -3 -9 -8 1 -18 6 -7 12 -36 12 -63 l0 -51 -42 49 -41 48 -18 -85 c-9 -46 -20 -146 -24 -221 -4 -75 -11 -136 -15 -136 -5 0 -9 -53 -10 -117 -1 -106 -8 -168 -41 -353 -10 -60 -28 -262 -32 -380 -6 -130 -20 -290 -26 -290 -4 0 -6 -33 -7 -72 0 -40 -3 -122 -8 -183 -4 -60 -12 -191 -16 -290 -5 -99 -9 -187 -10 -195 -2 -8 1 -51 5 -95 4 -44 6 -207 5 -363 -1 -180 2 -288 9 -296 5 -6 11 -77 13 -156 2 -99 7 -149 16 -158 6 -8 12 -41 13 -75 0 -34 2 -82 4 -107 2 -25 8 -123 14 -218 13 -200 35 -403 58 -517 8 -44 17 -116 18 -160 1 -44 6 -104 10 -134 8 -52 7 -54 -13 -49 -12 3 -23 1 -24 -4 -6 -16 -48 9 -48 27 0 8 -27 40 -61 72 -33 32 -69 72 -79 89 -11 16 -31 36 -45 44 -16 8 -30 29 -37 54 -13 41 -47 86 -67 86 -6 0 -11 9 -11 19 0 11 -7 26 -15 35 -8 8 -15 21 -15 29 0 8 -6 20 -14 27 -8 6 -16 21 -18 33 -2 15 -10 22 -25 21 -19 0 -23 6 -29 45 -4 25 -10 48 -13 51 -4 3 -14 27 -23 55 -8 27 -19 50 -25 52 -8 3 -53 -85 -53 -103 0 -4 -11 -17 -25 -30 -14 -13 -25 -28 -25 -34 0 -5 -4 -10 -10 -10 -5 0 -12 -11 -16 -25 -3 -14 -10 -25 -15 -25 -5 0 -9 -7 -9 -15 0 -9 -7 -18 -15 -21 -8 -4 -15 -11 -15 -16 0 -13 -51 -63 -72 -71 -10 -3 -18 -16 -18 -27 0 -11 -4 -20 -8 -20 -5 0 -17 -8 -28 -18 -11 -10 -32 -27 -47 -36 -15 -10 -27 -22 -27 -26 0 -11 -74 -86 -93 -93 -13 -5 -16 -13 -12 -28 6 -18 4 -20 -14 -14 -17 5 -21 2 -21 -14 0 -12 -6 -21 -14 -21 -8 0 -16 -7 -20 -15 -3 -8 -11 -15 -18 -15 -7 -1 -23 -9 -35 -19 l-23 -19 40 -64 c22 -34 43 -70 47 -78 6 -15 21 -32 87 -104 20 -22 36 -43 36 -48 0 -4 29 -36 65 -69 35 -34 77 -81 92 -105 16 -24 33 -44 40 -44 6 0 21 -13 33 -30 12 -16 27 -30 35 -30 7 0 33 -23 58 -51 25 -28 51 -51 59 -52 7 -2 28 -13 45 -25 17 -12 34 -22 37 -22 6 0 38 -25 68 -53 10 -9 22 -17 27 -17 5 0 11 -7 15 -15 3 -8 12 -15 21 -15 8 0 43 -20 78 -43 35 -24 77 -51 93 -59 123 -63 152 -80 175 -102 17 -16 38 -24 57 -24 17 1 38 -6 47 -16 9 -9 23 -16 31 -16 8 0 14 -7 14 -16 0 -10 6 -14 15 -10 8 3 15 2 15 -2 0 -4 17 -16 38 -26 20 -10 45 -22 54 -27 10 -5 25 -9 33 -9 8 0 15 -5 15 -10 0 -6 6 -10 13 -9 29 4 47 -2 47 -15 0 -15 43 -36 81 -40 41 -5 97 -26 102 -40 3 -7 27 -16 53 -20 26 -3 55 -12 63 -19 9 -8 36 -19 61 -26 25 -7 79 -24 121 -37 42 -13 110 -29 150 -35 41 -6 79 -14 84 -19 6 -4 32 -10 59 -14 27 -3 54 -10 60 -15 23 -18 75 -22 299 -22 230 -1 357 7 357 21 0 4 48 13 108 20 85 11 120 20 172 47 36 18 71 33 78 33 6 0 12 4 12 9 0 5 12 12 27 16 15 3 33 15 41 26 7 10 21 19 31 19 9 0 22 5 29 12 7 7 12 9 12 5 0 -9 19 6 59 46 16 15 33 27 39 27 5 0 31 22 57 49 43 45 61 70 82 111 4 8 17 23 30 33 13 10 23 28 23 40 0 12 11 34 24 48 13 14 27 35 30 47 4 12 11 22 16 22 5 0 11 13 15 30 4 16 11 30 16 30 5 0 9 11 9 25 0 14 4 25 9 25 4 0 11 19 14 42 3 24 11 44 16 46 6 2 11 31 11 68 0 50 3 64 15 64 15 0 20 64 15 201 -1 43 2 58 14 62 23 9 24 187 1 187 -13 0 -15 22 -15 134 0 106 -3 136 -15 146 -10 8 -15 30 -15 60 0 27 -5 50 -11 52 -5 2 -13 38 -16 81 -3 42 -10 77 -14 77 -5 0 -9 12 -9 28 0 15 -7 36 -15 46 -8 11 -15 39 -15 63 0 32 -4 43 -15 43 -10 0 -15 10 -15 30 0 17 -4 30 -9 30 -5 0 -12 11 -15 25 -4 14 -11 25 -16 25 -6 0 -10 13 -10 29 0 16 -6 31 -15 35 -8 3 -15 14 -15 25 0 10 -7 21 -15 25 -8 3 -15 12 -15 21 0 8 -4 15 -10 15 -5 0 -10 9 -10 19 0 11 -7 26 -15 35 -8 8 -15 21 -15 28 0 7 -12 24 -25 37 -14 13 -25 29 -25 37 0 8 -7 14 -15 14 -8 0 -15 9 -15 20 0 11 -7 23 -15 26 -8 4 -15 13 -15 20 0 8 -5 20 -10 27 -42 50 -61 67 -75 67 -9 0 -15 9 -15 24 0 27 -85 146 -104 146 -17 0 -46 33 -46 53 0 9 -18 31 -40 49 -22 18 -48 48 -57 67 -17 34 -137 161 -153 161 -5 0 -21 20 -36 45 -14 25 -29 45 -33 45 -4 0 -21 13 -37 30 -16 16 -35 30 -41 30 -7 0 -13 5 -13 10 0 6 -11 21 -25 34 -14 13 -25 28 -25 35 0 6 -7 11 -15 11 -8 0 -15 5 -15 10 0 6 -7 10 -15 10 -8 0 -15 6 -15 13 0 6 -33 44 -73 84 -39 40 -83 84 -96 98 -12 13 -26 23 -30 20 -4 -2 -15 11 -24 30 -9 18 -26 37 -39 40 -13 4 -35 21 -50 38 -17 19 -28 25 -28 16 -1 -16 -59 50 -60 68 0 6 11 20 25 31 14 11 25 23 25 27 0 13 71 86 179 185 73 67 86 90 51 90 -11 0 -20 5 -20 12 0 10 -45 84 -60 98 -3 3 -14 24 -24 48 -11 23 -23 42 -28 42 -4 0 -8 6 -8 14 0 8 -5 16 -11 18 -22 7 10 47 54 68 23 10 52 30 63 42 12 13 35 30 50 38 16 8 40 24 54 36 33 29 130 94 140 94 5 0 15 6 22 12 7 7 35 24 61 38 26 13 47 28 47 32 0 3 15 12 34 18 19 6 63 30 98 52 35 23 92 57 128 75 36 18 79 41 95 50 55 32 148 71 235 98 75 24 124 42 237 91 17 8 44 14 61 14 16 0 32 6 35 13 3 9 16 12 36 9 19 -2 31 0 31 7 0 6 9 11 19 11 11 0 23 5 27 11 4 7 21 9 40 6 19 -3 34 -2 34 4 0 5 9 9 20 9 11 0 20 5 20 10 0 6 6 10 14 10 8 0 16 5 18 11 2 5 24 15 48 20 25 6 63 18 85 28 22 10 56 23 75 29 48 13 153 45 287 86 76 22 114 30 117 22 3 -7 9 -4 16 7 6 9 22 17 35 17 13 0 25 5 27 10 2 6 30 15 62 20 33 5 62 14 65 19 6 8 159 28 191 24 8 -1 40 2 70 7 184 32 451 54 462 37 4 -7 11 -7 22 2 12 10 33 11 99 2 62 -8 92 -8 113 0 36 13 240 4 339 -16 39 -8 97 -17 130 -20 33 -4 74 -11 90 -16 39 -12 213 -56 290 -73 33 -8 77 -24 97 -36 21 -12 41 -19 46 -16 5 3 15 -4 22 -15 8 -10 21 -19 30 -19 27 0 210 -167 210 -191 0 -7 14 -38 30 -71 17 -32 30 -69 30 -82 0 -24 28 -56 48 -56 8 0 12 18 12 50 0 28 -4 50 -10 50 -5 0 -10 7 -10 15 0 8 5 15 10 15 6 0 10 18 10 40 0 22 -4 40 -10 40 -5 0 -10 9 -10 20 0 11 4 20 10 20 5 0 11 80 14 193 8 297 12 350 30 363 12 8 16 29 16 77 0 48 4 66 15 71 10 3 15 19 15 45 0 24 5 41 14 44 8 3 16 23 19 44 7 48 29 126 39 133 8 7 12 32 10 72 -2 25 -6 28 -53 34 -28 4 -57 13 -64 21 -8 7 -18 13 -22 12 -14 -2 -53 13 -53 21 0 4 -18 10 -40 14 -22 3 -40 11 -40 17 0 6 -9 9 -20 6 -12 -3 -60 7 -108 23 -48 15 -112 31 -142 35 -30 4 -74 14 -98 22 -37 12 -71 19 -134 25 -10 1 -18 5 -18 9 0 4 -33 10 -72 14 -40 4 -75 11 -78 15 -18 27 -882 28 -900 1 -3 -4 -12 -8 -20 -8 -63 -2 -197 -17 -206 -24 -6 -5 -45 -12 -88 -15 -42 -4 -76 -10 -76 -14 0 -10 -80 -20 -194 -26 -56 -2 -105 -11 -126 -21 -19 -9 -57 -18 -83 -21 -27 -3 -51 -10 -53 -17 -3 -7 -30 -16 -60 -20 -30 -3 -54 -10 -54 -15 0 -4 -19 -11 -42 -15 -24 -4 -47 -10 -53 -14 -18 -11 -80 -31 -97 -31 -10 0 -18 -4 -18 -8 0 -5 -31 -15 -70 -22 -38 -7 -70 -17 -70 -22 0 -4 -3 -7 -7 -6 -12 4 -107 -24 -117 -33 -6 -5 -17 -9 -25 -9 -9 0 -38 -12 -66 -25 -27 -14 -55 -25 -62 -25 -6 0 -13 -4 -15 -9 -4 -12 -103 -61 -123 -61 -8 0 -15 -5 -15 -11 0 -5 -4 -8 -8 -5 -8 5 -114 -45 -162 -76 -14 -9 -37 -20 -52 -23 -16 -4 -28 -11 -28 -15 0 -5 -10 -12 -22 -16 -13 -4 -25 -9 -28 -13 -11 -14 -98 -68 -145 -91 -27 -13 -56 -30 -63 -37 -7 -7 -20 -13 -28 -13 -8 0 -14 -4 -14 -9 0 -5 -13 -14 -30 -20 -16 -5 -30 -14 -30 -20 0 -5 -13 -12 -30 -16 -16 -4 -30 -10 -30 -14 0 -4 -17 -13 -37 -20 -21 -8 -46 -22 -56 -32 -10 -11 -24 -19 -32 -19 -8 0 -15 -4 -15 -9 0 -5 -12 -12 -27 -16 -24 -6 -81 -40 -93 -56 -3 -3 -23 -12 -45 -19 -22 -7 -45 -17 -50 -24 -6 -6 -31 -22 -58 -36 -26 -13 -47 -28 -47 -32 0 -3 -17 -12 -37 -19 -21 -6 -40 -15 -43 -18 -3 -3 -21 -14 -40 -24 -19 -9 -48 -26 -65 -36 -16 -11 -58 -34 -92 -51 -35 -18 -63 -35 -63 -40 0 -4 -21 -18 -46 -30 -25 -13 -57 -33 -71 -46 -14 -13 -30 -24 -36 -24 -5 0 -20 -10 -32 -22 -12 -13 -37 -31 -56 -42 -75 -41 -102 -58 -116 -72 -8 -7 -20 -14 -28 -14 -7 0 -15 -7 -19 -15 -3 -8 -12 -15 -21 -15 -8 0 -15 -5 -15 -10 0 -6 -8 -14 -17 -17 -10 -4 -31 -17 -47 -30 -37 -31 -102 -64 -110 -56 -14 14 -6 111 10 124 14 11 16 27 11 95 -5 73 -4 84 14 100 17 15 19 31 19 170 0 84 4 155 9 159 5 3 13 31 16 63 4 31 13 71 21 89 8 17 14 56 14 87 0 31 5 56 10 56 6 0 10 46 10 119 0 86 4 127 15 147 8 16 15 55 15 86 0 31 5 58 10 60 6 2 14 29 17 61 3 31 9 57 13 57 4 0 10 28 12 62 3 35 10 64 16 66 8 2 12 28 12 68 0 48 4 66 15 70 11 5 15 22 15 65 0 39 4 61 13 64 8 4 12 30 12 82 0 52 4 78 13 81 7 2 12 20 12 42 0 21 7 45 15 54 9 9 15 33 15 60 0 34 4 46 15 46 12 0 15 13 15 55 0 42 3 55 15 55 8 0 15 9 15 20 0 11 5 20 10 20 6 0 10 15 10 34 l0 33 -70 6 c-38 3 -82 12 -97 21 -16 8 -59 29 -97 46 -38 18 -84 47 -102 66 -19 18 -45 36 -58 40 -16 4 -30 19 -40 44 -11 28 -22 39 -45 43 -21 4 -30 13 -33 29 -2 13 -10 23 -18 23 -16 0 -60 46 -60 64 0 6 -4 11 -8 11 -16 0 -52 37 -52 54 0 9 -7 16 -15 16 -8 0 -15 9 -15 20 0 11 -7 23 -15 26 -8 4 -15 17 -15 29 0 13 -4 27 -10 30 -5 3 -10 14 -10 25 0 10 -7 20 -15 24 -8 3 -15 16 -15 29 0 14 -7 30 -16 37 -10 9 -14 26 -12 49 2 27 -1 36 -14 39 -9 2 -20 -3 -24 -9z m612 -4819 c106 -111 144 -155 144 -169 0 -6 3 -11 8 -11 4 0 18 -17 32 -38 14 -20 28 -40 32 -43 8 -5 67 -91 160 -231 28 -43 55 -78 59 -78 5 0 9 -5 9 -11 0 -6 15 -29 33 -52 41 -52 77 -113 77 -133 0 -8 6 -14 13 -15 13 0 87 -92 87 -109 0 -5 5 -10 10 -10 6 0 16 -12 22 -27 7 -16 31 -53 54 -83 23 -30 65 -103 93 -162 29 -59 56 -110 60 -113 5 -2 12 -17 16 -32 3 -16 20 -57 36 -92 57 -120 93 -236 105 -336 3 -33 10 -69 14 -80 12 -34 -7 -255 -29 -339 -12 -44 -32 -98 -46 -122 -14 -23 -25 -48 -25 -54 0 -6 -11 -21 -25 -34 -14 -13 -25 -26 -25 -30 0 -14 -44 -66 -56 -66 -6 0 -14 -9 -17 -20 -3 -11 -13 -23 -24 -27 -10 -3 -21 -10 -24 -15 -3 -5 -19 -11 -35 -14 -16 -3 -31 -9 -34 -14 -3 -5 -62 -13 -131 -18 -123 -9 -219 -3 -242 16 -7 6 -32 12 -57 15 -53 6 -71 10 -87 20 -6 4 -18 4 -27 1 -9 -3 -16 -2 -16 4 0 5 -15 12 -32 15 -63 10 -92 18 -117 35 -45 30 -66 42 -81 49 -15 7 -27 16 -53 39 -7 6 -29 17 -50 25 -20 7 -37 17 -37 22 0 5 -7 7 -15 3 -9 -3 -27 6 -44 24 -15 17 -33 30 -39 30 -6 0 -13 6 -15 13 -4 9 -8 8 -16 -3 -9 -13 -12 -13 -23 1 -7 9 -30 26 -50 38 -21 13 -42 30 -48 39 -5 10 -10 12 -10 5 0 -23 -17 -14 -30 16 -8 21 -17 27 -31 24 -14 -4 -19 0 -19 15 0 11 -8 22 -17 26 -10 3 -34 12 -53 20 l-35 14 37 1 c30 1 37 5 40 23 2 15 15 25 46 36 23 7 42 17 42 22 0 4 12 11 26 14 29 8 54 29 54 45 0 6 9 11 20 11 11 0 20 5 20 10 0 6 5 10 10 10 6 0 19 9 30 20 11 11 29 20 40 20 11 0 20 4 20 9 0 5 11 12 25 15 14 4 23 11 20 16 -3 5 4 11 15 15 11 3 20 10 20 15 0 5 15 12 34 16 29 5 36 12 42 37 4 18 13 37 22 43 13 9 14 33 9 155 -3 79 -9 155 -15 169 -5 14 -12 94 -16 179 -3 85 -10 157 -15 160 -5 4 -12 101 -16 216 -4 116 -8 231 -10 257 -1 26 1 45 6 42 5 -3 9 29 9 70 0 61 -3 76 -15 76 -13 0 -15 34 -15 246 0 150 4 253 10 265 10 18 13 16 43 -19 17 -20 68 -75 113 -122z"/>
 <path d="M6474 3466 c-22 -23 -51 -50 -65 -59 -13 -9 -20 -17 -16 -17 6 0 -12 -25 -40 -55 -7 -7 -15 -26 -19 -41 -4 -16 -13 -40 -20 -54 -33 -63 -88 -225 -101 -295 -3 -16 -9 -35 -14 -41 -5 -6 -12 -90 -15 -185 l-6 -174 45 50 c26 28 46 55 47 61 0 6 6 17 14 23 16 13 56 86 56 101 0 5 19 35 43 66 23 32 41 61 39 66 -1 5 4 37 13 71 8 34 24 103 34 154 10 50 22 97 26 103 5 8 25 260 21 267 -1 1 -19 -18 -42 -41z"/>
 <path d="M7300 3355 c0 -14 -4 -25 -10 -25 -14 0 -13 -127 2 -136 6 -4 19 2 29 14 9 12 22 22 28 22 6 0 11 5 11 10 0 6 9 10 19 10 27 0 38 20 17 32 -9 5 -16 14 -16 21 0 12 -62 77 -74 77 -3 0 -6 -11 -6 -25z"/>
 </g>
<g id="layer102" fill="#935978" stroke="none">
 <path d="M7720 6700 c0 -7 3 -10 7 -7 3 4 3 10 0 14 -4 3 -7 0 -7 -7z"/>
 <path d="M7750 6520 c0 -7 3 -10 7 -7 3 4 3 10 0 14 -4 3 -7 0 -7 -7z"/>
 <path d="M7751 6454 c0 -11 3 -14 6 -6 3 7 2 16 -1 19 -3 4 -6 -2 -5 -13z"/>
 <path d="M7685 6450 c3 -5 8 -10 11 -10 3 0 2 5 -1 10 -3 6 -8 10 -11 10 -3 0 -2 -4 1 -10z"/>
 <path d="M6461 3094 c0 -11 3 -14 6 -6 3 7 2 16 -1 19 -3 4 -6 -2 -5 -13z"/>
 <path d="M6430 2970 c0 -7 3 -10 7 -7 3 4 3 10 0 14 -4 3 -7 0 -7 -7z"/>
 <path d="M6421 2924 c0 -11 3 -14 6 -6 3 7 2 16 -1 19 -3 4 -6 -2 -5 -13z"/>
 <path d="M6364 2818 c-4 -7 -3 -8 4 -4 7 4 12 9 12 12 0 8 -9 4 -16 -8z"/>
 <path d="M6210 2580 c0 -7 3 -10 7 -7 3 4 3 10 0 14 -4 3 -7 0 -7 -7z"/>
 <path d="M6184 2548 c-4 -7 -3 -8 4 -4 12 7 16 16 8 16 -3 0 -8 -5 -12 -12z"/>
 <path d="M7003 2433 c4 -3 10 -3 14 0 3 4 0 7 -7 7 -7 0 -10 -3 -7 -7z"/>
 <path d="M6910 2308 c0 -9 -6 -19 -12 -21 -10 -4 -10 -6 0 -6 14 -1 28 26 18 36 -3 4 -6 -1 -6 -9z"/>
 <path d="M6580 1940 c0 -7 3 -10 7 -7 3 4 3 10 0 14 -4 3 -7 0 -7 -7z"/>
 </g>
<g id="layer103" fill="#826381" stroke="none">
 <path d="M6344 2798 c-4 -7 -3 -8 4 -4 7 4 12 9 12 12 0 8 -9 4 -16 -8z"/>
 </g>
<g id="layer104" fill="#b24d6d" stroke="none">
 <path d="M7730 6610 c0 -5 5 -10 11 -10 5 0 7 5 4 10 -3 6 -8 10 -11 10 -2 0 -4 -4 -4 -10z"/>
 <path d="M7752 6415 c0 -16 2 -22 5 -12 2 9 2 23 0 30 -3 6 -5 -1 -5 -18z"/>
 <path d="M6511 3434 c0 -11 3 -14 6 -6 3 7 2 16 -1 19 -3 4 -6 -2 -5 -13z"/>
 <path d="M6535 1910 c-3 -5 -1 -10 4 -10 6 0 11 5 11 10 0 6 -2 10 -4 10 -3 0 -8 -4 -11 -10z"/>
 </g>
<g id="layer105" fill="#e1355a" stroke="none">
 <path d="M4935 8288 c-38 -17 -86 -43 -105 -58 -19 -15 -49 -36 -67 -47 -32 -19 -218 -190 -305 -280 -28 -29 -66 -75 -85 -103 -18 -27 -36 -50 -38 -50 -2 0 -48 -11 -102 -25 -109 -28 -224 -33 -298 -13 -24 7 -47 9 -51 5 -4 -4 8 -84 26 -179 41 -222 77 -424 91 -513 5 -38 10 -199 11 -357 0 -274 -1 -289 -19 -305 -11 -10 -59 -63 -107 -118 -47 -55 -111 -127 -141 -160 -136 -149 -193 -228 -261 -367 -25 -51 -50 -101 -55 -110 -5 -10 -9 -26 -9 -36 0 -9 -8 -33 -19 -53 -17 -32 -27 -64 -70 -224 -20 -77 -24 -536 -4 -542 8 -3 10 -15 6 -34 -3 -16 -2 -29 3 -29 5 0 8 -20 6 -46 -3 -33 1 -50 14 -65 15 -16 16 -22 5 -29 -9 -5 -11 -15 -7 -26 4 -11 14 -57 22 -104 8 -47 21 -105 29 -130 8 -25 31 -99 51 -165 20 -66 40 -129 45 -140 4 -11 11 -36 15 -55 3 -19 22 -61 40 -93 19 -32 34 -61 34 -65 0 -4 19 -37 43 -74 70 -110 150 -238 161 -257 27 -46 52 -79 90 -120 84 -90 204 -206 281 -272 44 -38 101 -87 127 -110 26 -24 62 -52 80 -63 18 -11 35 -23 38 -26 12 -13 95 -70 103 -70 4 0 36 -13 70 -30 124 -60 316 -89 360 -56 15 12 17 27 14 115 -2 58 -9 107 -16 114 -6 6 -11 26 -11 43 0 18 -7 39 -15 48 -8 8 -15 30 -15 50 0 19 -7 41 -15 50 -8 8 -15 31 -15 51 0 20 -5 45 -10 56 -6 11 -14 61 -17 112 -3 50 -9 94 -14 95 -5 2 -9 20 -9 40 0 21 -5 55 -11 77 -6 22 -15 82 -19 134 -5 52 -13 97 -19 100 -5 3 -11 49 -12 101 -1 52 -8 112 -16 134 -8 25 -13 92 -14 190 0 86 -5 159 -11 171 -6 11 -15 96 -19 190 -4 93 -12 190 -17 215 -6 25 -11 87 -12 138 0 51 -5 102 -10 113 -7 13 -7 19 0 19 14 0 13 27 -2 33 -10 4 -10 6 0 6 15 1 16 28 1 33 -18 6 -14 498 4 509 5 4 12 61 15 128 3 67 8 124 13 126 4 3 20 0 36 -6 15 -6 35 -12 43 -13 18 -3 68 -22 92 -36 10 -6 27 -10 38 -10 11 0 20 -5 20 -11 0 -5 24 -21 53 -35 28 -14 90 -49 137 -79 47 -30 110 -67 140 -81 30 -15 57 -29 60 -33 3 -3 30 -22 60 -42 140 -91 188 -125 230 -160 25 -21 68 -49 95 -63 28 -14 57 -33 66 -43 9 -10 38 -36 63 -58 68 -58 166 -160 186 -193 10 -15 30 -41 45 -58 45 -48 110 -136 136 -184 13 -24 30 -50 36 -57 23 -25 94 -188 124 -283 73 -229 73 -232 113 -450 9 -47 20 -110 26 -140 31 -158 33 -481 4 -615 -8 -38 -18 -86 -21 -105 -3 -19 -12 -55 -20 -80 -8 -24 -16 -67 -19 -95 -4 -36 -16 -65 -42 -104 -20 -30 -48 -75 -62 -101 -34 -64 -93 -150 -102 -150 -5 0 -8 -5 -8 -11 0 -12 -25 -37 -78 -79 -17 -14 -32 -30 -32 -36 0 -7 -11 -15 -25 -18 -14 -4 -30 -17 -35 -29 -13 -32 -186 -186 -210 -187 -8 0 -33 -14 -54 -30 -22 -17 -43 -30 -48 -30 -5 0 -19 -9 -31 -21 -19 -18 -66 -43 -75 -39 -1 0 -12 -8 -23 -19 -11 -10 -37 -22 -57 -26 -21 -4 -42 -11 -48 -16 -17 -14 -323 -52 -404 -49 -87 2 -298 20 -345 30 -33 6 -73 13 -90 16 -16 2 -59 9 -95 14 -36 6 -88 17 -117 25 -28 8 -62 15 -75 15 -12 0 -32 7 -42 15 -11 8 -30 15 -43 15 -13 0 -34 6 -46 14 -12 8 -44 17 -71 20 -26 2 -56 12 -65 20 -10 9 -39 20 -66 25 -26 5 -50 13 -54 18 -3 5 -24 17 -46 26 -22 10 -47 22 -55 28 -8 5 -26 14 -40 20 -14 6 -32 15 -40 20 -37 21 -106 50 -144 60 -22 6 -45 16 -51 23 -5 7 -27 16 -47 20 -21 4 -48 17 -61 30 -22 22 -55 43 -104 65 -13 6 -23 14 -23 19 0 5 -21 19 -47 31 -27 12 -56 26 -65 32 -10 5 -25 9 -33 9 -8 0 -15 6 -15 14 0 8 -17 25 -37 37 -21 13 -49 36 -63 51 -13 15 -30 28 -37 28 -6 0 -18 8 -25 18 -7 10 -25 27 -40 36 -16 10 -28 25 -28 32 0 8 -6 14 -13 14 -7 0 -19 10 -27 21 -15 21 -66 72 -122 123 -16 14 -28 30 -28 35 0 6 -6 14 -13 18 -8 4 -22 20 -32 36 -11 17 -26 27 -41 27 -19 0 -24 5 -24 26 0 16 -11 35 -30 51 -16 13 -30 32 -30 41 0 28 -43 105 -62 110 -13 3 -18 14 -18 38 0 20 -12 50 -30 77 -16 25 -30 55 -30 66 0 12 -7 24 -15 27 -9 4 -15 19 -15 35 0 16 -4 29 -9 29 -5 0 -13 10 -17 23 -3 12 -12 29 -20 37 -7 9 -12 35 -11 60 1 26 -3 45 -11 48 -6 2 -14 26 -18 53 -4 27 -10 49 -14 49 -4 0 -11 36 -15 80 -4 44 -11 83 -16 86 -12 7 -11 122 1 126 6 2 13 52 16 113 3 61 9 112 14 115 4 3 10 27 12 54 3 27 10 51 16 55 5 3 12 17 16 31 8 26 38 92 46 100 12 12 28 48 34 77 5 23 15 34 37 42 19 7 29 17 29 30 0 12 6 21 13 21 7 0 21 13 30 30 24 40 42 48 104 47 28 0 57 4 65 10 13 11 74 22 142 26 37 2 66 27 31 27 -9 0 -22 13 -28 30 -6 17 -15 30 -19 30 -4 0 -8 7 -8 15 0 8 -4 15 -8 15 -4 0 -13 14 -19 31 -8 20 -17 29 -29 27 -12 -2 -20 4 -22 17 -2 11 -10 25 -18 31 -10 8 -15 38 -16 104 -2 64 -6 94 -15 97 -8 3 -13 23 -13 54 0 37 -4 49 -15 49 -10 0 -15 -10 -15 -31 0 -17 -4 -28 -10 -24 -13 8 -13 85 1 85 7 0 9 84 8 263 -2 145 0 268 4 274 4 6 5 29 3 52 -2 24 1 44 7 49 12 7 31 34 43 60 18 37 -48 54 -108 28 -18 -8 -40 -17 -48 -21 -8 -3 -33 -17 -55 -30 -22 -13 -71 -40 -110 -59 -38 -19 -87 -50 -107 -68 -20 -18 -64 -53 -97 -78 -33 -25 -63 -53 -66 -62 -4 -10 -10 -18 -14 -18 -12 0 -121 -114 -145 -151 -11 -19 -26 -40 -32 -46 -7 -7 -22 -28 -34 -48 -12 -19 -25 -35 -29 -35 -7 0 -23 -27 -65 -109 -20 -39 -77 -189 -88 -230 -5 -20 -16 -63 -25 -96 -8 -33 -19 -91 -23 -130 -5 -38 -16 -108 -25 -155 -9 -47 -20 -121 -26 -165 -5 -44 -14 -113 -20 -152 -7 -51 -7 -95 0 -145 6 -40 15 -120 20 -178 13 -144 37 -309 50 -342 6 -16 7 -28 4 -28 -4 0 -2 -5 5 -12 7 -7 12 -21 12 -32 1 -12 9 -39 20 -61 11 -22 19 -48 20 -57 0 -10 5 -18 10 -18 6 0 10 -7 10 -15 0 -8 18 -51 40 -97 22 -46 40 -88 40 -93 0 -6 15 -33 33 -61 19 -28 36 -57 39 -65 7 -18 127 -200 167 -254 16 -22 36 -52 43 -65 30 -55 75 -120 153 -220 121 -154 220 -251 427 -421 208 -170 237 -193 273 -211 19 -10 40 -26 47 -35 15 -20 22 -25 126 -85 41 -24 101 -61 135 -83 56 -37 169 -95 184 -95 3 0 56 -24 117 -54 61 -29 145 -66 186 -81 41 -15 84 -31 95 -35 11 -4 56 -21 100 -36 44 -15 91 -34 105 -41 14 -7 31 -13 38 -13 8 0 28 -6 45 -13 18 -8 93 -35 167 -60 74 -25 160 -54 190 -65 56 -21 206 -52 272 -57 20 -2 41 -6 47 -10 18 -11 397 -7 506 6 55 6 118 12 140 14 156 11 270 26 273 35 2 5 8 10 14 10 23 0 134 60 146 79 7 12 22 21 33 21 31 0 99 22 99 32 0 4 7 8 15 8 8 0 15 5 15 11 0 5 5 7 11 4 15 -10 51 1 74 22 11 10 41 29 68 42 26 13 47 30 47 38 0 7 7 13 15 13 8 0 22 11 30 24 9 14 29 29 45 35 16 5 42 21 57 35 15 14 33 26 40 26 6 0 21 16 33 36 14 21 28 33 36 30 10 -4 14 2 14 19 0 14 5 25 11 25 6 0 37 26 69 57 88 89 116 113 128 113 7 0 12 9 12 20 0 12 10 25 25 32 14 6 25 17 25 25 0 7 6 13 14 13 8 0 17 11 20 25 4 14 11 25 16 25 6 0 10 7 10 15 0 8 7 15 15 15 8 0 15 9 15 20 0 11 7 23 15 26 8 4 15 10 15 16 0 5 6 16 13 23 30 35 37 45 37 58 0 8 7 20 15 27 8 7 15 20 15 29 0 9 14 29 30 45 17 16 30 35 30 43 0 7 7 16 15 19 9 4 15 19 15 39 0 19 6 40 13 47 17 18 77 138 77 154 0 7 4 14 10 16 5 1 11 50 13 108 3 65 9 106 16 108 7 2 11 41 11 117 0 81 3 114 12 117 10 4 14 60 16 221 3 189 1 218 -12 223 -13 5 -16 27 -16 124 0 71 -4 120 -10 122 -6 2 -13 28 -17 58 -3 30 -9 57 -13 60 -15 10 -40 102 -40 145 0 25 -6 50 -15 59 -9 9 -15 33 -15 60 0 34 -4 46 -15 46 -10 0 -15 10 -15 30 0 18 -6 33 -15 36 -9 4 -15 19 -15 40 0 19 -4 34 -10 34 -5 0 -10 9 -10 20 0 11 -4 20 -10 20 -5 0 -13 12 -16 28 -4 15 -11 30 -16 33 -5 3 -13 21 -18 40 -14 55 -55 158 -68 171 -7 7 -12 22 -12 35 0 13 -6 23 -14 23 -9 0 -16 12 -18 28 -2 19 -8 27 -20 26 -10 -1 -18 3 -18 10 0 6 -9 19 -20 29 -11 9 -20 24 -20 32 0 8 -4 15 -9 15 -5 0 -12 9 -16 19 -3 11 -18 35 -33 54 -15 19 -36 48 -47 64 -11 15 -35 43 -52 60 -18 18 -33 37 -33 43 0 6 -13 13 -30 17 -23 4 -30 11 -30 30 0 13 -7 26 -15 29 -8 4 -15 12 -15 18 0 7 -13 22 -30 34 -16 13 -30 31 -30 42 0 11 -4 20 -9 20 -6 0 -45 36 -89 80 -43 44 -81 80 -85 80 -4 0 -24 17 -45 38 -22 20 -56 51 -78 69 -21 17 -64 54 -94 82 -30 28 -63 51 -72 51 -10 0 -18 4 -18 9 0 19 -51 61 -73 61 -17 0 -24 5 -23 18 0 9 -6 18 -14 18 -8 1 -21 2 -27 3 -7 0 -13 7 -13 15 0 8 -14 17 -31 21 -18 4 -33 15 -36 25 -3 10 -16 21 -29 24 -13 4 -24 11 -24 16 0 6 -6 10 -14 10 -7 0 -24 9 -38 19 -13 11 -41 22 -61 26 -20 4 -34 11 -31 16 3 5 -3 12 -13 15 -10 3 -27 10 -38 14 -11 5 -35 12 -52 15 -27 5 -33 11 -33 31 0 16 -8 28 -23 35 -13 6 -29 20 -36 31 -11 17 -10 23 8 39 11 10 27 19 36 19 8 0 15 9 15 19 0 16 11 22 54 31 29 6 64 21 77 33 13 12 28 22 34 23 22 2 65 24 65 34 0 5 10 10 23 10 12 0 40 9 61 19 21 11 51 23 67 26 16 4 29 11 29 15 0 5 19 14 41 20 23 6 49 15 58 20 9 5 25 12 36 15 l20 7 -20 8 c-12 5 -1 6 29 3 44 -6 49 -4 43 11 -6 15 -3 17 22 11 20 -4 30 -2 34 8 6 15 53 28 101 27 16 0 33 5 37 11 4 7 46 15 95 19 49 4 109 13 134 20 53 15 399 18 409 3 6 -9 21 -13 186 -54 123 -31 185 -46 246 -62 58 -15 104 -42 203 -116 38 -28 61 -40 65 -33 4 7 14 -1 26 -21 10 -17 37 -51 61 -74 23 -22 40 -43 38 -46 -2 -2 3 -10 11 -17 14 -12 16 -10 11 11 -11 57 -16 109 -9 109 11 0 3 94 -9 101 -5 3 -12 77 -15 163 -3 86 -10 156 -15 156 -5 0 -8 100 -7 238 l2 237 -24 2 c-65 6 -614 6 -679 0 -205 -18 -176 -13 -432 -81 -31 -8 -66 -20 -77 -26 -12 -6 -26 -8 -31 -5 -5 3 -11 1 -14 -4 -3 -5 -30 -12 -59 -16 -51 -6 -112 -24 -174 -51 -17 -8 -37 -14 -45 -14 -7 -1 -31 -9 -53 -20 -22 -11 -48 -19 -57 -20 -9 0 -19 -4 -22 -9 -5 -7 -100 -38 -131 -42 -5 -1 -19 -8 -30 -15 -11 -8 -29 -14 -42 -14 -12 0 -25 -4 -28 -10 -3 -5 -15 -10 -26 -10 -10 0 -19 -4 -19 -10 0 -5 -3 -9 -7 -8 -14 2 -62 -21 -121 -58 -31 -21 -115 -67 -187 -104 -71 -36 -175 -97 -230 -134 -130 -89 -180 -113 -200 -96 -8 7 -15 10 -15 6 0 -4 -12 0 -27 8 -35 18 -103 93 -103 113 0 8 -18 32 -40 54 -22 22 -40 46 -40 54 0 7 -6 20 -13 27 -7 7 -20 26 -30 41 -21 33 -19 51 24 263 47 228 100 365 289 742 94 187 170 344 170 350 0 9 -34 12 -112 12 -104 -1 -118 -3 -183 -32z m1002 -1615 c-4 -3 -10 -3 -14 0 -3 4 0 7 7 7 7 0 10 -3 7 -7z m-1915 -1139 c-2 -65 1 -136 7 -161 7 -24 14 -99 16 -165 2 -66 8 -125 13 -131 6 -7 13 -49 17 -95 4 -45 11 -85 16 -88 5 -3 9 -26 9 -52 0 -26 7 -85 15 -132 9 -47 22 -134 31 -195 8 -60 19 -114 24 -120 4 -5 11 -43 15 -82 4 -40 11 -73 15 -73 4 0 11 -29 15 -65 3 -36 10 -65 15 -65 4 0 10 -28 14 -62 8 -77 48 -262 57 -266 4 -2 5 -12 2 -23 -3 -11 -1 -39 5 -62 6 -23 13 -70 16 -104 l6 -62 -31 18 c-17 10 -37 28 -45 40 -8 11 -24 21 -35 21 -10 0 -19 6 -19 13 0 18 -37 47 -59 47 -11 0 -23 9 -27 22 -3 12 -17 33 -30 47 -13 14 -24 29 -24 33 0 5 -5 8 -11 8 -15 0 -54 45 -81 93 -12 20 -25 37 -30 37 -4 0 -8 11 -8 25 0 14 -8 29 -20 35 -11 6 -20 17 -20 25 0 8 -4 15 -10 15 -5 0 -10 7 -10 16 0 9 -9 27 -20 41 -11 14 -20 34 -20 44 0 11 -4 19 -10 19 -5 0 -10 11 -10 24 0 13 -4 26 -8 28 -10 4 -41 89 -49 133 -3 17 -9 32 -12 35 -11 8 -51 183 -51 222 0 20 -6 38 -12 41 -18 5 -18 324 -1 335 7 5 13 38 14 85 1 50 7 81 15 88 8 6 14 28 14 49 0 24 5 40 15 44 9 3 15 18 15 35 0 41 17 82 40 98 12 9 20 26 20 44 0 29 34 93 71 133 11 11 19 26 19 33 0 7 6 13 13 13 8 0 30 18 50 40 57 64 63 57 59 -76z m-2165 -211 c-4 -3 -7 0 -7 7 0 7 3 10 7 7 3 -4 3 -10 0 -14z m983 -373 c0 -5 -4 -10 -10 -10 -5 0 -10 5 -10 10 0 6 5 10 10 10 6 0 10 -4 10 -10z"/>
 </g>
<g id="layer106" fill="#cccacc" stroke="none">
 <path d="M4380 11080 c-94 -13 -235 -56 -305 -93 -84 -44 -184 -146 -223 -227 -34 -72 -69 -237 -54 -252 5 -5 44 -8 87 -6 l78 3 14 55 c44 175 174 295 358 331 40 8 131 14 215 14 204 -1 293 -27 393 -115 67 -60 89 -108 95 -206 6 -109 -14 -170 -71 -220 -83 -71 -165 -102 -482 -179 -309 -75 -418 -121 -520 -220 -115 -113 -146 -316 -72 -478 35 -77 133 -177 214 -219 118 -61 216 -82 388 -82 126 -1 165 3 240 23 164 42 303 136 372 253 39 64 76 197 61 216 -7 7 -37 12 -82 12 l-72 0 -28 -66 c-91 -209 -321 -300 -640 -254 -194 28 -320 163 -303 325 11 104 60 164 182 221 75 35 106 44 375 103 361 80 506 161 587 328 60 125 57 287 -9 418 -76 150 -195 239 -391 296 -83 24 -299 34 -407 19z"/>
 <path d="M5505 11038 c-3 -7 -4 -418 -3 -913 l3 -900 455 0 c390 1 464 3 520 17 184 47 303 145 361 297 26 68 37 236 20 324 -14 75 -61 182 -101 230 -45 53 -143 123 -210 148 -106 40 -205 49 -547 49 l-323 0 -2 378 -3 377 -83 3 c-60 2 -84 -1 -87 -10z m912 -940 c188 -57 267 -162 266 -358 0 -146 -42 -229 -143 -284 -102 -56 -126 -59 -507 -63 l-353 -5 0 367 0 367 343 -5 c270 -3 353 -7 394 -19z"/>
 <path d="M7027 11037 c-5 -13 29 -107 163 -450 39 -98 70 -184 70 -192 0 -8 3 -15 6 -15 9 0 148 41 152 45 2 1 -12 43 -31 91 -19 49 -38 100 -42 114 -4 14 -27 76 -52 138 -24 62 -41 117 -38 121 3 5 -7 43 -22 85 l-27 76 -87 0 c-62 0 -88 -4 -92 -13z"/>
 <path d="M8475 11040 c-11 -17 -47 -124 -50 -149 -2 -13 -18 -60 -35 -105 -49 -126 -56 -144 -98 -256 l-40 -105 71 -22 c40 -13 77 -23 83 -23 6 0 29 46 51 103 65 161 152 375 188 461 18 43 31 85 28 92 -6 17 -188 20 -198 4z"/>
 <path d="M8895 11038 c-3 -7 -4 -418 -3 -913 l3 -900 520 0 c512 0 521 0 592 23 138 43 247 140 295 262 29 76 36 257 14 354 -17 71 -58 153 -103 207 -30 35 -117 93 -174 116 l-40 15 44 47 c57 61 88 127 198 416 50 132 101 267 114 300 12 33 20 66 18 73 -3 8 -31 12 -92 12 -101 0 -88 14 -148 -150 -165 -451 -206 -533 -297 -598 -67 -49 -96 -52 -443 -52 l-323 0 -2 398 -3 397 -83 3 c-60 2 -84 -1 -87 -10z m961 -983 c176 -31 259 -106 284 -257 38 -225 -61 -360 -292 -398 -35 -5 -224 -10 -420 -10 l-358 0 0 340 0 340 349 0 c270 0 368 -4 437 -15z"/>
 <path d="M10655 11038 c-3 -7 -4 -418 -3 -913 l3 -900 85 0 85 0 5 467 5 468 35 -32 c29 -27 311 -301 835 -810 l100 -98 103 0 c86 0 104 3 109 16 6 17 -9 33 -490 502 l-228 222 87 118 c48 64 108 146 135 182 26 36 85 115 131 177 373 501 431 582 424 598 -4 12 -26 15 -105 15 l-101 0 -53 -72 c-103 -139 -250 -340 -372 -509 -27 -38 -101 -139 -164 -225 l-113 -155 -167 163 -166 163 -5 315 -5 315 -83 3 c-60 2 -84 -1 -87 -10z"/>
 <path d="M7394 10058 l10 -38 14 25 c15 29 11 40 -16 47 -17 5 -18 2 -8 -34z"/>
 <path d="M8263 10090 c-20 -8 -22 -12 -11 -35 15 -34 23 -32 35 10 12 37 10 39 -24 25z"/>
 <path d="M7575 9809 c-27 -16 -54 -30 -60 -32 -5 -2 21 -84 59 -183 37 -98 84 -223 105 -277 l36 -97 115 2 115 3 73 180 c40 99 90 223 111 276 l38 96 -63 31 c-62 31 -64 31 -74 12 -6 -11 -49 -118 -96 -238 -47 -119 -89 -221 -93 -225 -4 -4 -16 14 -25 40 -20 54 -19 52 -74 188 -89 217 -105 255 -111 254 -3 -1 -28 -14 -56 -30z"/>
 </g>
<g id="layer107" fill="#f2f1f1" stroke="none">
 <path d="M7830 11622 c0 -16 -27 -161 -61 -323 -33 -162 -64 -319 -69 -349 -7 -45 -45 -243 -66 -338 -5 -26 -21 -21 -68 25 -16 15 -55 48 -87 73 -31 25 -94 76 -139 113 -46 37 -85 66 -87 63 -2 -2 16 -55 40 -117 25 -63 48 -125 52 -139 4 -14 23 -64 41 -112 19 -48 34 -89 34 -91 0 -4 -88 -30 -235 -68 -159 -41 -230 -61 -243 -68 -9 -5 15 -19 69 -41 46 -18 89 -36 94 -40 6 -4 78 -33 160 -65 83 -32 154 -61 158 -65 4 -4 -27 -79 -70 -166 -83 -168 -126 -265 -120 -271 3 -2 22 5 43 16 21 11 104 52 184 92 80 39 151 76 158 82 7 5 15 8 17 5 5 -5 104 -240 132 -313 8 -22 19 -49 23 -60 5 -11 16 -42 26 -68 9 -26 21 -44 25 -40 4 4 46 106 93 225 47 120 90 227 96 237 9 19 22 14 210 -81 110 -56 203 -99 205 -96 5 5 -118 272 -175 381 l-31 57 28 10 c94 34 458 183 467 191 9 8 -53 28 -229 74 -55 15 -135 36 -177 48 l-77 20 20 51 c11 28 31 80 44 116 23 63 33 89 88 233 14 37 22 67 18 67 -4 0 -48 -34 -97 -76 -49 -42 -105 -88 -124 -103 -19 -14 -60 -47 -89 -73 -30 -27 -58 -48 -61 -48 -4 0 -17 57 -29 128 -25 134 -54 279 -122 607 -22 110 -44 228 -46 263 -6 62 -23 88 -23 34z"/>
 <path d="M5115 10860 c3 -5 8 -10 11 -10 3 0 2 5 -1 10 -3 6 -8 10 -11 10 -3 0 -2 -4 1 -10z"/>
 <path d="M11504 10558 c-4 -7 -3 -8 4 -4 12 7 16 16 8 16 -3 0 -8 -5 -12 -12z"/>
 <path d="M11305 9700 c10 -11 20 -20 23 -20 3 0 -3 9 -13 20 -10 11 -20 20 -23 20 -3 0 3 -9 13 -20z"/>
 <path d="M3975 9360 c3 -5 8 -10 11 -10 3 0 2 5 -1 10 -3 6 -8 10 -11 10 -3 0 -2 -4 1 -10z"/>
 </g>

</svg>